<svg xmlns="http://www.w3.org/2000/svg" xmlns:xlink="http://www.w3.org/1999/xlink" width="1200" zoomAndPan="magnify" viewBox="0 0 900 449.999984" height="600" preserveAspectRatio="xMidYMid meet" version="1.0"><defs><g/><clipPath id="57597dcad2"><path d="M 37.5 0 L 862.5 0 C 883.210938 0 900 16.789062 900 37.5 L 900 412.5 C 900 433.210938 883.210938 450 862.5 450 L 37.5 450 C 16.789062 450 0 433.210938 0 412.5 L 0 37.5 C 0 16.789062 16.789062 0 37.5 0 Z M 37.5 0 " clip-rule="nonzero"/></clipPath><clipPath id="d021e8e3be"><path d="M 224 113.214844 L 308 113.214844 L 308 170 L 224 170 Z M 224 113.214844 " clip-rule="nonzero"/></clipPath><clipPath id="c603b692e7"><path d="M 168 134 L 364 134 L 364 336.714844 L 168 336.714844 Z M 168 134 " clip-rule="nonzero"/></clipPath></defs><g clip-path="url(#57597dcad2)"><rect x="-90" width="1080" fill="#f5f4f4" y="-44.999998" height="539.99998" fill-opacity="1"/></g><g clip-path="url(#d021e8e3be)"><path fill="#000000" d="M 245.046875 113.214844 C 244.363281 113.214844 243.675781 113.25 242.992188 113.316406 C 242.3125 113.382812 241.632812 113.484375 240.960938 113.621094 C 240.285156 113.753906 239.621094 113.917969 238.964844 114.117188 C 238.308594 114.316406 237.664062 114.550781 237.03125 114.8125 C 236.394531 115.074219 235.777344 115.367188 235.171875 115.691406 C 234.566406 116.015625 233.976562 116.367188 233.40625 116.746094 C 232.835938 117.128906 232.285156 117.539062 231.753906 117.972656 C 231.226562 118.40625 230.71875 118.867188 230.230469 119.355469 C 229.746094 119.839844 229.285156 120.347656 228.851562 120.878906 C 228.414062 121.40625 228.007812 121.957031 227.625 122.527344 C 227.246094 123.097656 226.890625 123.6875 226.570312 124.292969 C 226.246094 124.898438 225.953125 125.515625 225.691406 126.152344 C 225.425781 126.785156 225.195312 127.429688 224.996094 128.085938 C 224.796875 128.742188 224.632812 129.410156 224.496094 130.082031 C 224.363281 130.753906 224.261719 131.433594 224.195312 132.117188 C 224.128906 132.800781 224.09375 133.484375 224.09375 134.167969 L 224.09375 148.136719 C 224.09375 148.824219 224.128906 149.507812 224.195312 150.191406 C 224.261719 150.875 224.363281 151.554688 224.496094 152.226562 C 224.632812 152.898438 224.796875 153.5625 224.996094 154.222656 C 225.195312 154.878906 225.425781 155.523438 225.691406 156.15625 C 225.953125 156.789062 226.246094 157.410156 226.570312 158.015625 C 226.890625 158.621094 227.246094 159.207031 227.625 159.78125 C 228.007812 160.351562 228.414062 160.902344 228.851562 161.429688 C 229.285156 161.960938 229.746094 162.46875 230.230469 162.953125 C 230.71875 163.441406 231.226562 163.898438 231.753906 164.335938 C 232.285156 164.769531 232.835938 165.179688 233.40625 165.558594 C 233.976562 165.941406 234.566406 166.292969 235.171875 166.617188 C 235.777344 166.941406 236.394531 167.234375 237.03125 167.496094 C 237.664062 167.757812 238.308594 167.988281 238.964844 168.1875 C 239.621094 168.386719 240.285156 168.554688 240.960938 168.6875 C 241.632812 168.824219 242.3125 168.921875 242.992188 168.992188 C 243.675781 169.058594 244.363281 169.089844 245.046875 169.089844 L 286.953125 169.089844 C 287.640625 169.089844 288.324219 169.058594 289.007812 168.992188 C 289.691406 168.921875 290.367188 168.824219 291.042969 168.6875 C 291.714844 168.554688 292.378906 168.386719 293.035156 168.1875 C 293.691406 167.988281 294.339844 167.757812 294.972656 167.496094 C 295.605469 167.234375 296.226562 166.941406 296.832031 166.617188 C 297.4375 166.292969 298.023438 165.941406 298.59375 165.558594 C 299.164062 165.179688 299.714844 164.769531 300.246094 164.335938 C 300.777344 163.898438 301.285156 163.441406 301.769531 162.953125 C 302.253906 162.46875 302.714844 161.960938 303.152344 161.429688 C 303.585938 160.902344 303.996094 160.351562 304.375 159.78125 C 304.757812 159.207031 305.109375 158.621094 305.433594 158.015625 C 305.757812 157.410156 306.050781 156.789062 306.3125 156.15625 C 306.574219 155.523438 306.804688 154.878906 307.003906 154.222656 C 307.203125 153.5625 307.371094 152.898438 307.503906 152.226562 C 307.636719 151.554688 307.738281 150.875 307.804688 150.191406 C 307.875 149.507812 307.90625 148.824219 307.90625 148.136719 L 307.90625 134.167969 C 307.90625 133.484375 307.875 132.800781 307.804688 132.117188 C 307.738281 131.433594 307.636719 130.753906 307.503906 130.082031 C 307.371094 129.410156 307.203125 128.742188 307.003906 128.085938 C 306.804688 127.429688 306.574219 126.785156 306.3125 126.152344 C 306.050781 125.515625 305.757812 124.898438 305.433594 124.292969 C 305.109375 123.6875 304.757812 123.097656 304.375 122.527344 C 303.996094 121.957031 303.585938 121.40625 303.152344 120.878906 C 302.714844 120.347656 302.253906 119.839844 301.769531 119.355469 C 301.285156 118.867188 300.777344 118.40625 300.246094 117.972656 C 299.714844 117.539062 299.164062 117.128906 298.59375 116.746094 C 298.023438 116.367188 297.4375 116.015625 296.832031 115.691406 C 296.226562 115.367188 295.605469 115.074219 294.972656 114.8125 C 294.339844 114.550781 293.691406 114.316406 293.035156 114.117188 C 292.378906 113.917969 291.714844 113.753906 291.042969 113.621094 C 290.367188 113.484375 289.691406 113.382812 289.007812 113.316406 C 288.324219 113.25 287.640625 113.214844 286.953125 113.214844 Z M 286.953125 127.183594 C 287.414062 127.183594 287.867188 127.230469 288.316406 127.320312 C 288.765625 127.410156 289.203125 127.542969 289.625 127.71875 C 290.050781 127.890625 290.453125 128.109375 290.835938 128.363281 C 291.214844 128.617188 291.570312 128.90625 291.894531 129.230469 C 292.21875 129.554688 292.507812 129.90625 292.761719 130.289062 C 293.015625 130.671875 293.230469 131.074219 293.40625 131.496094 C 293.582031 131.921875 293.714844 132.355469 293.804688 132.808594 C 293.894531 133.257812 293.9375 133.710938 293.9375 134.167969 L 293.9375 148.136719 C 293.9375 148.597656 293.894531 149.050781 293.804688 149.5 C 293.714844 149.949219 293.582031 150.386719 293.40625 150.8125 C 293.230469 151.234375 293.015625 151.636719 292.761719 152.019531 C 292.507812 152.398438 292.21875 152.753906 291.894531 153.078125 C 291.570312 153.402344 291.214844 153.691406 290.835938 153.945312 C 290.453125 154.199219 290.050781 154.414062 289.625 154.589844 C 289.203125 154.765625 288.765625 154.898438 288.316406 154.988281 C 287.867188 155.078125 287.414062 155.121094 286.953125 155.121094 L 245.046875 155.121094 C 244.589844 155.121094 244.136719 155.078125 243.683594 154.988281 C 243.234375 154.898438 242.796875 154.765625 242.375 154.589844 C 241.953125 154.414062 241.546875 154.199219 241.167969 153.945312 C 240.785156 153.691406 240.433594 153.402344 240.109375 153.078125 C 239.785156 152.753906 239.496094 152.398438 239.242188 152.019531 C 238.984375 151.636719 238.769531 151.234375 238.59375 150.8125 C 238.417969 150.386719 238.285156 149.949219 238.199219 149.5 C 238.109375 149.050781 238.0625 148.597656 238.0625 148.136719 L 238.0625 134.167969 C 238.0625 133.710938 238.109375 133.257812 238.199219 132.808594 C 238.285156 132.355469 238.417969 131.921875 238.59375 131.496094 C 238.769531 131.074219 238.984375 130.671875 239.242188 130.289062 C 239.496094 129.90625 239.785156 129.554688 240.109375 129.230469 C 240.433594 128.90625 240.785156 128.617188 241.167969 128.363281 C 241.546875 128.109375 241.953125 127.890625 242.375 127.71875 C 242.796875 127.542969 243.234375 127.410156 243.683594 127.320312 C 244.136719 127.230469 244.589844 127.183594 245.046875 127.183594 Z M 286.953125 127.183594 " fill-opacity="1" fill-rule="nonzero"/></g><g clip-path="url(#c603b692e7)"><path fill="#000000" d="M 210.125 134.167969 L 196.15625 134.167969 C 195.242188 134.167969 194.328125 134.214844 193.417969 134.304688 C 192.507812 134.394531 191.605469 134.527344 190.707031 134.707031 C 189.808594 134.886719 188.921875 135.105469 188.046875 135.371094 C 187.171875 135.636719 186.3125 135.945312 185.464844 136.296875 C 184.621094 136.644531 183.792969 137.039062 182.988281 137.46875 C 182.179688 137.898438 181.398438 138.371094 180.636719 138.878906 C 179.875 139.386719 179.140625 139.929688 178.433594 140.511719 C 177.726562 141.089844 177.050781 141.707031 176.402344 142.351562 C 175.753906 143 175.140625 143.675781 174.5625 144.382812 C 173.980469 145.089844 173.4375 145.824219 172.929688 146.585938 C 172.417969 147.347656 171.949219 148.128906 171.519531 148.9375 C 171.085938 149.746094 170.695312 150.570312 170.347656 151.414062 C 169.996094 152.261719 169.6875 153.121094 169.421875 153.996094 C 169.15625 154.871094 168.933594 155.757812 168.757812 156.65625 C 168.578125 157.554688 168.445312 158.457031 168.355469 159.367188 C 168.265625 160.28125 168.21875 161.191406 168.21875 162.105469 L 168.21875 308.777344 C 168.21875 309.695312 168.265625 310.605469 168.355469 311.515625 C 168.445312 312.429688 168.578125 313.332031 168.757812 314.230469 C 168.933594 315.125 169.15625 316.011719 169.421875 316.890625 C 169.6875 317.765625 169.996094 318.625 170.347656 319.46875 C 170.695312 320.316406 171.085938 321.140625 171.519531 321.949219 C 171.949219 322.753906 172.417969 323.539062 172.929688 324.300781 C 173.4375 325.0625 173.980469 325.796875 174.5625 326.503906 C 175.140625 327.210938 175.753906 327.886719 176.402344 328.535156 C 177.050781 329.179688 177.726562 329.792969 178.433594 330.375 C 179.140625 330.957031 179.875 331.5 180.636719 332.007812 C 181.398438 332.515625 182.179688 332.988281 182.988281 333.417969 C 183.792969 333.847656 184.621094 334.238281 185.464844 334.589844 C 186.3125 334.941406 187.171875 335.246094 188.046875 335.511719 C 188.921875 335.777344 189.808594 336 190.707031 336.179688 C 191.605469 336.359375 192.507812 336.492188 193.417969 336.582031 C 194.328125 336.671875 195.242188 336.714844 196.15625 336.714844 L 335.84375 336.714844 C 336.757812 336.714844 337.671875 336.671875 338.582031 336.582031 C 339.492188 336.492188 340.398438 336.359375 341.296875 336.179688 C 342.191406 336 343.078125 335.777344 343.953125 335.511719 C 344.832031 335.246094 345.691406 334.941406 346.535156 334.589844 C 347.382812 334.238281 348.207031 333.847656 349.015625 333.417969 C 349.820312 332.988281 350.605469 332.515625 351.367188 332.007812 C 352.125 331.5 352.859375 330.957031 353.566406 330.375 C 354.273438 329.792969 354.953125 329.179688 355.597656 328.535156 C 356.246094 327.886719 356.859375 327.210938 357.441406 326.503906 C 358.019531 325.796875 358.566406 325.0625 359.074219 324.300781 C 359.582031 323.539062 360.050781 322.753906 360.484375 321.949219 C 360.914062 321.140625 361.304688 320.316406 361.65625 319.46875 C 362.003906 318.625 362.3125 317.765625 362.578125 316.890625 C 362.84375 316.011719 363.066406 315.125 363.246094 314.230469 C 363.425781 313.332031 363.558594 312.429688 363.648438 311.515625 C 363.738281 310.605469 363.78125 309.695312 363.78125 308.777344 L 363.78125 162.105469 C 363.78125 161.191406 363.738281 160.28125 363.648438 159.367188 C 363.558594 158.457031 363.425781 157.554688 363.246094 156.65625 C 363.066406 155.757812 362.84375 154.871094 362.578125 153.996094 C 362.3125 153.121094 362.003906 152.261719 361.65625 151.414062 C 361.304688 150.570312 360.914062 149.746094 360.484375 148.9375 C 360.050781 148.128906 359.582031 147.347656 359.074219 146.585938 C 358.566406 145.824219 358.019531 145.089844 357.441406 144.382812 C 356.859375 143.675781 356.246094 143 355.597656 142.351562 C 354.953125 141.707031 354.273438 141.089844 353.566406 140.511719 C 352.859375 139.929688 352.125 139.386719 351.367188 138.878906 C 350.605469 138.371094 349.820312 137.898438 349.015625 137.46875 C 348.207031 137.039062 347.382812 136.644531 346.535156 136.296875 C 345.691406 135.945312 344.832031 135.636719 343.953125 135.371094 C 343.078125 135.105469 342.191406 134.886719 341.296875 134.707031 C 340.398438 134.527344 339.492188 134.394531 338.582031 134.304688 C 337.671875 134.214844 336.757812 134.167969 335.84375 134.167969 L 321.875 134.167969 L 321.875 148.136719 C 321.875 149.28125 321.820312 150.421875 321.707031 151.5625 C 321.59375 152.699219 321.429688 153.828125 321.203125 154.953125 C 320.980469 156.074219 320.703125 157.179688 320.371094 158.277344 C 320.039062 159.371094 319.65625 160.445312 319.21875 161.503906 C 318.78125 162.558594 318.292969 163.59375 317.753906 164.601562 C 317.214844 165.609375 316.625 166.589844 315.992188 167.539062 C 315.355469 168.492188 314.675781 169.410156 313.949219 170.292969 C 313.222656 171.175781 312.457031 172.023438 311.648438 172.832031 C 310.839844 173.640625 309.992188 174.40625 309.109375 175.132812 C 308.222656 175.859375 307.304688 176.539062 306.355469 177.175781 C 305.40625 177.808594 304.425781 178.398438 303.417969 178.9375 C 302.40625 179.476562 301.375 179.964844 300.316406 180.402344 C 299.261719 180.839844 298.1875 181.222656 297.089844 181.554688 C 295.996094 181.886719 294.890625 182.167969 293.765625 182.390625 C 292.644531 182.613281 291.515625 182.78125 290.378906 182.890625 C 289.238281 183.003906 288.097656 183.058594 286.953125 183.058594 L 245.046875 183.058594 C 243.902344 183.058594 242.761719 183.003906 241.625 182.890625 C 240.488281 182.78125 239.355469 182.613281 238.234375 182.390625 C 237.113281 182.167969 236.003906 181.886719 234.910156 181.554688 C 233.816406 181.222656 232.742188 180.839844 231.683594 180.402344 C 230.628906 179.964844 229.59375 179.476562 228.585938 178.9375 C 227.578125 178.398438 226.597656 177.808594 225.644531 177.175781 C 224.695312 176.539062 223.777344 175.859375 222.894531 175.132812 C 222.007812 174.40625 221.164062 173.640625 220.355469 172.832031 C 219.546875 172.023438 218.777344 171.175781 218.054688 170.292969 C 217.328125 169.410156 216.648438 168.492188 216.011719 167.539062 C 215.375 166.589844 214.789062 165.609375 214.25 164.601562 C 213.710938 163.589844 213.222656 162.558594 212.785156 161.503906 C 212.347656 160.445312 211.960938 159.371094 211.628906 158.277344 C 211.296875 157.179688 211.019531 156.074219 210.796875 154.953125 C 210.574219 153.828125 210.40625 152.699219 210.292969 151.5625 C 210.183594 150.421875 210.125 149.28125 210.125 148.136719 Z M 293.9375 224.964844 C 293.9375 224.050781 294.027344 223.140625 294.207031 222.242188 C 294.386719 221.339844 294.652344 220.46875 295 219.621094 C 295.351562 218.773438 295.78125 217.96875 296.292969 217.207031 C 296.800781 216.441406 297.382812 215.738281 298.03125 215.089844 C 298.679688 214.441406 299.382812 213.863281 300.148438 213.351562 C 300.910156 212.84375 301.714844 212.410156 302.5625 212.0625 C 303.410156 211.710938 304.28125 211.445312 305.183594 211.265625 C 306.082031 211.085938 306.988281 210.996094 307.90625 210.996094 C 308.824219 210.996094 309.734375 211.085938 310.632812 211.265625 C 311.53125 211.445312 312.40625 211.710938 313.253906 212.0625 C 314.101562 212.410156 314.90625 212.84375 315.667969 213.351562 C 316.429688 213.863281 317.136719 214.441406 317.785156 215.089844 C 318.433594 215.738281 319.011719 216.441406 319.523438 217.207031 C 320.03125 217.96875 320.460938 218.773438 320.8125 219.621094 C 321.164062 220.46875 321.429688 221.339844 321.609375 222.242188 C 321.785156 223.140625 321.875 224.050781 321.875 224.964844 L 321.875 294.808594 C 321.875 295.726562 321.785156 296.636719 321.609375 297.535156 C 321.429688 298.433594 321.164062 299.308594 320.8125 300.15625 C 320.460938 301.003906 320.03125 301.808594 319.523438 302.570312 C 319.011719 303.332031 318.433594 304.039062 317.785156 304.6875 C 317.136719 305.335938 316.429688 305.914062 315.667969 306.425781 C 314.90625 306.933594 314.101562 307.363281 313.253906 307.714844 C 312.40625 308.066406 311.53125 308.332031 310.632812 308.511719 C 309.734375 308.691406 308.824219 308.777344 307.90625 308.777344 C 306.988281 308.777344 306.082031 308.691406 305.183594 308.511719 C 304.28125 308.332031 303.410156 308.066406 302.5625 307.714844 C 301.714844 307.363281 300.910156 306.933594 300.148438 306.425781 C 299.382812 305.914062 298.679688 305.335938 298.03125 304.6875 C 297.382812 304.039062 296.800781 303.332031 296.292969 302.570312 C 295.78125 301.808594 295.351562 301.003906 295 300.15625 C 294.652344 299.308594 294.386719 298.433594 294.207031 297.535156 C 294.027344 296.636719 293.9375 295.726562 293.9375 294.808594 Z M 210.125 280.839844 C 210.125 279.925781 210.214844 279.015625 210.394531 278.117188 C 210.574219 277.214844 210.839844 276.34375 211.1875 275.496094 C 211.539062 274.648438 211.96875 273.84375 212.480469 273.082031 C 212.988281 272.316406 213.570312 271.613281 214.21875 270.964844 C 214.867188 270.316406 215.570312 269.738281 216.335938 269.226562 C 217.097656 268.71875 217.902344 268.285156 218.75 267.9375 C 219.597656 267.585938 220.46875 267.320312 221.371094 267.140625 C 222.269531 266.960938 223.175781 266.871094 224.09375 266.871094 C 225.011719 266.871094 225.921875 266.960938 226.820312 267.140625 C 227.71875 267.320312 228.59375 267.585938 229.441406 267.9375 C 230.289062 268.285156 231.09375 268.71875 231.855469 269.226562 C 232.617188 269.738281 233.324219 270.316406 233.972656 270.964844 C 234.621094 271.613281 235.199219 272.316406 235.710938 273.082031 C 236.21875 273.84375 236.648438 274.648438 237 275.496094 C 237.351562 276.34375 237.617188 277.214844 237.796875 278.117188 C 237.972656 279.015625 238.0625 279.925781 238.0625 280.839844 L 238.0625 294.808594 C 238.0625 295.726562 237.972656 296.636719 237.796875 297.535156 C 237.617188 298.433594 237.351562 299.308594 237 300.15625 C 236.648438 301.003906 236.21875 301.808594 235.710938 302.570312 C 235.199219 303.332031 234.621094 304.039062 233.972656 304.6875 C 233.324219 305.335938 232.617188 305.914062 231.855469 306.425781 C 231.09375 306.933594 230.289062 307.363281 229.441406 307.714844 C 228.59375 308.066406 227.71875 308.332031 226.820312 308.511719 C 225.921875 308.691406 225.011719 308.777344 224.09375 308.777344 C 223.175781 308.777344 222.269531 308.691406 221.371094 308.511719 C 220.46875 308.332031 219.597656 308.066406 218.75 307.714844 C 217.902344 307.363281 217.097656 306.933594 216.335938 306.425781 C 215.570312 305.914062 214.867188 305.335938 214.21875 304.6875 C 213.570312 304.039062 212.988281 303.332031 212.480469 302.570312 C 211.96875 301.808594 211.539062 301.003906 211.1875 300.15625 C 210.839844 299.308594 210.574219 298.433594 210.394531 297.535156 C 210.214844 296.636719 210.125 295.726562 210.125 294.808594 Z M 266 238.933594 C 266.917969 238.933594 267.828125 239.023438 268.726562 239.203125 C 269.625 239.382812 270.5 239.648438 271.347656 240 C 272.195312 240.347656 273 240.78125 273.761719 241.289062 C 274.523438 241.800781 275.230469 242.378906 275.878906 243.027344 C 276.527344 243.675781 277.105469 244.378906 277.617188 245.144531 C 278.125 245.90625 278.554688 246.710938 278.90625 247.558594 C 279.257812 248.40625 279.523438 249.277344 279.703125 250.179688 C 279.878906 251.078125 279.96875 251.988281 279.96875 252.902344 L 279.96875 294.808594 C 279.96875 295.726562 279.878906 296.636719 279.703125 297.535156 C 279.523438 298.433594 279.257812 299.308594 278.90625 300.15625 C 278.554688 301.003906 278.125 301.808594 277.617188 302.570312 C 277.105469 303.332031 276.527344 304.039062 275.878906 304.6875 C 275.230469 305.335938 274.523438 305.914062 273.761719 306.425781 C 273 306.933594 272.195312 307.363281 271.347656 307.714844 C 270.5 308.066406 269.625 308.332031 268.726562 308.511719 C 267.828125 308.691406 266.917969 308.777344 266 308.777344 C 265.082031 308.777344 264.175781 308.691406 263.277344 308.511719 C 262.375 308.332031 261.503906 308.066406 260.65625 307.714844 C 259.808594 307.363281 259.003906 306.933594 258.242188 306.425781 C 257.476562 305.914062 256.773438 305.335938 256.125 304.6875 C 255.476562 304.039062 254.894531 303.332031 254.386719 302.570312 C 253.875 301.808594 253.445312 301.003906 253.09375 300.15625 C 252.746094 299.308594 252.480469 298.433594 252.300781 297.535156 C 252.121094 296.636719 252.03125 295.726562 252.03125 294.808594 L 252.03125 252.902344 C 252.03125 251.988281 252.121094 251.078125 252.300781 250.179688 C 252.480469 249.277344 252.746094 248.40625 253.09375 247.558594 C 253.445312 246.710938 253.875 245.90625 254.386719 245.144531 C 254.894531 244.378906 255.476562 243.675781 256.125 243.027344 C 256.773438 242.378906 257.476562 241.800781 258.242188 241.289062 C 259.003906 240.78125 259.808594 240.347656 260.65625 240 C 261.503906 239.648438 262.375 239.382812 263.277344 239.203125 C 264.175781 239.023438 265.082031 238.933594 266 238.933594 " fill-opacity="1" fill-rule="nonzero"/></g><g fill="#000000" fill-opacity="1"><g transform="translate(429.623431, 256.49998)"><g><path d="M 7.453125 0 L 7.453125 -59.25 L 20.015625 -59.25 L 20.015625 -10.375 L 44.046875 -10.375 L 44.046875 0 Z M 7.453125 0 "/></g></g></g><g fill="#000000" fill-opacity="1"><g transform="translate(476.50915, 256.49998)"><g><path d="M 18.84375 -45.3125 L 18.84375 0 L 6.484375 0 L 6.484375 -45.3125 Z M 12.6875 -63.0625 C 14.519531 -63.0625 16.097656 -62.632812 17.421875 -61.78125 C 18.742188 -60.925781 19.40625 -59.335938 19.40625 -57.015625 C 19.40625 -54.722656 18.742188 -53.132812 17.421875 -52.25 C 16.097656 -51.375 14.519531 -50.9375 12.6875 -50.9375 C 10.820312 -50.9375 9.234375 -51.375 7.921875 -52.25 C 6.609375 -53.132812 5.953125 -54.722656 5.953125 -57.015625 C 5.953125 -59.335938 6.609375 -60.925781 7.921875 -61.78125 C 9.234375 -62.632812 10.820312 -63.0625 12.6875 -63.0625 Z M 12.6875 -63.0625 "/></g></g></g><g fill="#000000" fill-opacity="1"><g transform="translate(501.836354, 256.49998)"><g><path d="M 18.84375 -63.0625 L 18.84375 -48.390625 C 18.84375 -46.691406 18.796875 -45.003906 18.703125 -43.328125 C 18.609375 -41.648438 18.492188 -40.351562 18.359375 -39.4375 L 18.84375 -39.4375 C 20.03125 -41.300781 21.648438 -42.882812 23.703125 -44.1875 C 25.753906 -45.5 28.414062 -46.15625 31.6875 -46.15625 C 36.769531 -46.15625 40.890625 -44.171875 44.046875 -40.203125 C 47.210938 -36.234375 48.796875 -30.410156 48.796875 -22.734375 C 48.796875 -17.578125 48.066406 -13.25 46.609375 -9.75 C 45.148438 -6.25 43.109375 -3.613281 40.484375 -1.84375 C 37.867188 -0.0703125 34.832031 0.8125 31.375 0.8125 C 28.050781 0.8125 25.425781 0.21875 23.5 -0.96875 C 21.582031 -2.15625 20.03125 -3.492188 18.84375 -4.984375 L 18 -4.984375 L 15.921875 0 L 6.484375 0 L 6.484375 -63.0625 Z M 27.71875 -36.265625 C 25.5625 -36.265625 23.847656 -35.816406 22.578125 -34.921875 C 21.304688 -34.035156 20.378906 -32.703125 19.796875 -30.921875 C 19.210938 -29.140625 18.894531 -26.882812 18.84375 -24.15625 L 18.84375 -22.8125 C 18.84375 -18.414062 19.488281 -15.046875 20.78125 -12.703125 C 22.082031 -10.367188 24.453125 -9.203125 27.890625 -9.203125 C 30.421875 -9.203125 32.4375 -10.375 33.9375 -12.71875 C 35.4375 -15.070312 36.1875 -18.460938 36.1875 -22.890625 C 36.1875 -27.328125 35.429688 -30.664062 33.921875 -32.90625 C 32.410156 -35.144531 30.34375 -36.265625 27.71875 -36.265625 Z M 27.71875 -36.265625 "/></g></g></g><g fill="#000000" fill-opacity="1"><g transform="translate(554.354843, 256.49998)"><g><path d="M 42.4375 -16.453125 C 42.4375 -12.941406 41.582031 -9.890625 39.875 -7.296875 C 38.175781 -4.703125 35.695312 -2.703125 32.4375 -1.296875 C 29.1875 0.109375 25.238281 0.8125 20.59375 0.8125 C 18.539062 0.8125 16.53125 0.675781 14.5625 0.40625 C 12.601562 0.132812 10.722656 -0.257812 8.921875 -0.78125 C 7.128906 -1.3125 5.425781 -1.96875 3.8125 -2.75 L 3.8125 -14.421875 C 6.625 -13.179688 9.539062 -12.0625 12.5625 -11.0625 C 15.59375 -10.0625 18.59375 -9.5625 21.5625 -9.5625 C 23.613281 -9.5625 25.265625 -9.832031 26.515625 -10.375 C 27.773438 -10.914062 28.6875 -11.65625 29.25 -12.59375 C 29.820312 -13.539062 30.109375 -14.625 30.109375 -15.84375 C 30.109375 -17.332031 29.609375 -18.601562 28.609375 -19.65625 C 27.609375 -20.707031 26.238281 -21.691406 24.5 -22.609375 C 22.757812 -23.535156 20.796875 -24.523438 18.609375 -25.578125 C 17.222656 -26.222656 15.71875 -27.007812 14.09375 -27.9375 C 12.476562 -28.875 10.941406 -30.015625 9.484375 -31.359375 C 8.023438 -32.710938 6.828125 -34.351562 5.890625 -36.28125 C 4.960938 -38.21875 4.5 -40.539062 4.5 -43.25 C 4.5 -46.78125 5.304688 -49.800781 6.921875 -52.3125 C 8.546875 -54.832031 10.863281 -56.757812 13.875 -58.09375 C 16.894531 -59.4375 20.457031 -60.109375 24.5625 -60.109375 C 27.644531 -60.109375 30.582031 -59.75 33.375 -59.03125 C 36.164062 -58.3125 39.09375 -57.273438 42.15625 -55.921875 L 38.09375 -46.15625 C 35.363281 -47.269531 32.914062 -48.128906 30.75 -48.734375 C 28.59375 -49.335938 26.394531 -49.640625 24.15625 -49.640625 C 22.582031 -49.640625 21.242188 -49.390625 20.140625 -48.890625 C 19.035156 -48.390625 18.195312 -47.6875 17.625 -46.78125 C 17.0625 -45.882812 16.78125 -44.835938 16.78125 -43.640625 C 16.78125 -42.242188 17.191406 -41.0625 18.015625 -40.09375 C 18.835938 -39.132812 20.078125 -38.207031 21.734375 -37.3125 C 23.398438 -36.425781 25.476562 -35.390625 27.96875 -34.203125 C 30.988281 -32.773438 33.570312 -31.28125 35.71875 -29.71875 C 37.875 -28.164062 39.53125 -26.34375 40.6875 -24.25 C 41.851562 -22.15625 42.4375 -19.554688 42.4375 -16.453125 Z M 42.4375 -16.453125 "/></g></g></g><g fill="#000000" fill-opacity="1"><g transform="translate(600.065381, 256.49998)"><g><path d="M 25.578125 -9.03125 C 26.921875 -9.03125 28.234375 -9.164062 29.515625 -9.4375 C 30.804688 -9.707031 32.085938 -10.046875 33.359375 -10.453125 L 33.359375 -1.25 C 32.035156 -0.65625 30.390625 -0.164062 28.421875 0.21875 C 26.460938 0.613281 24.320312 0.8125 22 0.8125 C 19.300781 0.8125 16.878906 0.375 14.734375 -0.5 C 12.585938 -1.382812 10.898438 -2.910156 9.671875 -5.078125 C 8.441406 -7.253906 7.828125 -10.289062 7.828125 -14.1875 L 7.828125 -36.03125 L 1.90625 -36.03125 L 1.90625 -41.25 L 8.71875 -45.390625 L 12.28125 -54.953125 L 20.1875 -54.953125 L 20.1875 -45.3125 L 32.875 -45.3125 L 32.875 -36.03125 L 20.1875 -36.03125 L 20.1875 -14.1875 C 20.1875 -12.457031 20.675781 -11.164062 21.65625 -10.3125 C 22.644531 -9.457031 23.953125 -9.03125 25.578125 -9.03125 Z M 25.578125 -9.03125 "/></g></g></g><g fill="#000000" fill-opacity="1"><g transform="translate(636.090807, 256.49998)"><g><path d="M 25.046875 -46.234375 C 31.128906 -46.234375 35.789062 -44.910156 39.03125 -42.265625 C 42.269531 -39.617188 43.890625 -35.59375 43.890625 -30.1875 L 43.890625 0 L 35.265625 0 L 32.875 -6.15625 L 32.546875 -6.15625 C 31.242188 -4.539062 29.914062 -3.21875 28.5625 -2.1875 C 27.21875 -1.164062 25.664062 -0.410156 23.90625 0.078125 C 22.15625 0.566406 20.023438 0.8125 17.515625 0.8125 C 14.835938 0.8125 12.4375 0.300781 10.3125 -0.71875 C 8.195312 -1.75 6.53125 -3.320312 5.3125 -5.4375 C 4.09375 -7.5625 3.484375 -10.257812 3.484375 -13.53125 C 3.484375 -18.34375 5.171875 -21.890625 8.546875 -24.171875 C 11.929688 -26.453125 17 -27.71875 23.75 -27.96875 L 31.609375 -28.203125 L 31.609375 -30.1875 C 31.609375 -32.570312 30.988281 -34.316406 29.75 -35.421875 C 28.507812 -36.523438 26.78125 -37.078125 24.5625 -37.078125 C 22.375 -37.078125 20.222656 -36.765625 18.109375 -36.140625 C 16.003906 -35.523438 13.898438 -34.742188 11.796875 -33.796875 L 7.703125 -42.15625 C 10.109375 -43.414062 12.800781 -44.410156 15.78125 -45.140625 C 18.769531 -45.867188 21.859375 -46.234375 25.046875 -46.234375 Z M 31.609375 -21 L 26.828125 -20.828125 C 22.828125 -20.722656 20.050781 -20.007812 18.5 -18.6875 C 16.945312 -17.363281 16.171875 -15.617188 16.171875 -13.453125 C 16.171875 -11.566406 16.722656 -10.222656 17.828125 -9.421875 C 18.941406 -8.628906 20.390625 -8.234375 22.171875 -8.234375 C 24.816406 -8.234375 27.050781 -9.015625 28.875 -10.578125 C 30.695312 -12.140625 31.609375 -14.367188 31.609375 -17.265625 Z M 31.609375 -21 "/></g></g></g><g fill="#000000" fill-opacity="1"><g transform="translate(686.218397, 256.49998)"><g><path d="M 25.578125 -9.03125 C 26.921875 -9.03125 28.234375 -9.164062 29.515625 -9.4375 C 30.804688 -9.707031 32.085938 -10.046875 33.359375 -10.453125 L 33.359375 -1.25 C 32.035156 -0.65625 30.390625 -0.164062 28.421875 0.21875 C 26.460938 0.613281 24.320312 0.8125 22 0.8125 C 19.300781 0.8125 16.878906 0.375 14.734375 -0.5 C 12.585938 -1.382812 10.898438 -2.910156 9.671875 -5.078125 C 8.441406 -7.253906 7.828125 -10.289062 7.828125 -14.1875 L 7.828125 -36.03125 L 1.90625 -36.03125 L 1.90625 -41.25 L 8.71875 -45.390625 L 12.28125 -54.953125 L 20.1875 -54.953125 L 20.1875 -45.3125 L 32.875 -45.3125 L 32.875 -36.03125 L 20.1875 -36.03125 L 20.1875 -14.1875 C 20.1875 -12.457031 20.675781 -11.164062 21.65625 -10.3125 C 22.644531 -9.457031 23.953125 -9.03125 25.578125 -9.03125 Z M 25.578125 -9.03125 "/></g></g></g><g fill="#000000" fill-opacity="1"><g transform="translate(722.2438, 256.49998)"><g><path d="M 38.09375 -13.453125 C 38.09375 -10.367188 37.367188 -7.765625 35.921875 -5.640625 C 34.484375 -3.523438 32.332031 -1.921875 29.46875 -0.828125 C 26.601562 0.265625 23.035156 0.8125 18.765625 0.8125 C 15.597656 0.8125 12.882812 0.609375 10.625 0.203125 C 8.375 -0.203125 6.101562 -0.878906 3.8125 -1.828125 L 3.8125 -12.03125 C 6.269531 -10.925781 8.910156 -10.015625 11.734375 -9.296875 C 14.554688 -8.585938 17.035156 -8.234375 19.171875 -8.234375 C 21.578125 -8.234375 23.296875 -8.585938 24.328125 -9.296875 C 25.367188 -10.015625 25.890625 -10.957031 25.890625 -12.125 C 25.890625 -12.875 25.679688 -13.550781 25.265625 -14.15625 C 24.847656 -14.769531 23.945312 -15.460938 22.5625 -16.234375 C 21.1875 -17.003906 19.03125 -18.007812 16.09375 -19.25 C 13.25 -20.4375 10.914062 -21.640625 9.09375 -22.859375 C 7.269531 -24.078125 5.921875 -25.515625 5.046875 -27.171875 C 4.171875 -28.835938 3.734375 -30.953125 3.734375 -33.515625 C 3.734375 -37.703125 5.359375 -40.851562 8.609375 -42.96875 C 11.867188 -45.09375 16.226562 -46.15625 21.6875 -46.15625 C 24.488281 -46.15625 27.164062 -45.867188 29.71875 -45.296875 C 32.28125 -44.734375 34.910156 -43.832031 37.609375 -42.59375 L 33.875 -33.671875 C 31.632812 -34.648438 29.519531 -35.445312 27.53125 -36.0625 C 25.550781 -36.6875 23.535156 -37 21.484375 -37 C 19.671875 -37 18.304688 -36.753906 17.390625 -36.265625 C 16.472656 -35.785156 16.015625 -35.046875 16.015625 -34.046875 C 16.015625 -33.316406 16.25 -32.664062 16.71875 -32.09375 C 17.1875 -31.53125 18.101562 -30.90625 19.46875 -30.21875 C 20.832031 -29.53125 22.835938 -28.644531 25.484375 -27.5625 C 28.054688 -26.507812 30.285156 -25.40625 32.171875 -24.25 C 34.066406 -23.101562 35.523438 -21.6875 36.546875 -20 C 37.578125 -18.3125 38.09375 -16.128906 38.09375 -13.453125 Z M 38.09375 -13.453125 "/></g></g></g></svg>