<?xml version="1.0" standalone="no"?>
<!DOCTYPE svg PUBLIC "-//W3C//DTD SVG 20010904//EN"
 "http://www.w3.org/TR/2001/REC-SVG-20010904/DTD/svg10.dtd">
<svg version="1.0" xmlns="http://www.w3.org/2000/svg"
 width="700.000000pt" height="700.000000pt" viewBox="0 0 700.000000 700.000000"
 preserveAspectRatio="xMidYMid meet">
<metadata>
Created by potrace 1.14, written by Peter Selinger 2001-2017
</metadata>
<g transform="translate(0.000000,700.000000) scale(0.100000,-0.100000)"
fill="#000000" stroke="none">
<path d="M2705 6985 c-174 -38 -337 -157 -428 -313 -30 -51 -61 -126 -60 -142
1 -3 -3 -12 -7 -20 -17 -32 -21 -106 -21 -385 0 -236 3 -305 17 -365 16 -72
69 -196 96 -224 7 -8 29 -34 48 -59 47 -59 140 -129 224 -167 129 -59 147 -60
933 -60 687 0 719 1 803 21 235 55 419 236 480 474 19 72 21 109 21 370 0 160
-2 306 -6 325 -30 175 -126 332 -267 436 -58 42 -173 95 -238 110 -19 4 -372
9 -785 10 -592 2 -763 0 -810 -11z m1536 -442 c53 -24 93 -63 116 -113 23 -52
24 -558 0 -610 -21 -48 -63 -89 -116 -113 -43 -19 -70 -19 -740 -20 -686 0
-697 0 -743 21 -54 23 -91 60 -115 112 -14 29 -17 78 -18 285 0 138 3 268 7
289 18 81 95 153 177 163 20 3 37 6 38 7 1 0 304 1 675 0 653 -1 675 -2 719
-21z"/>
<path d="M1257 6344 c-1 -1 -24 -4 -52 -8 -158 -19 -314 -85 -439 -186 -179
-144 -301 -364 -322 -581 -9 -92 -9 -4723 0 -4798 41 -353 291 -638 651 -745
70 -21 73 -21 2385 -23 l2315 -2 95 25 c210 54 385 171 511 343 81 109 152
310 158 446 7 135 3 4695 -3 4755 -40 377 -335 690 -716 760 -67 13 -578 21
-585 10 -2 -4 -5 -128 -6 -276 -1 -289 -9 -358 -55 -499 -118 -360 -437 -650
-794 -724 -30 -6 -66 -14 -80 -18 -14 -3 -369 -7 -790 -9 -812 -2 -842 -1
-1000 46 -387 114 -693 455 -761 848 -17 96 -16 82 -18 372 l-1 265 -246 0
c-135 0 -246 -1 -247 -1z m3680 -2424 c106 -34 206 -115 257 -209 58 -107 56
-58 56 -1301 0 -1233 1 -1199 -51 -1302 -26 -50 -101 -133 -151 -164 -92 -58
-225 -81 -331 -57 -111 26 -208 93 -268 186 -77 120 -73 36 -74 1312 -1 880 2
1154 11 1203 13 64 58 158 97 202 53 60 160 121 242 138 53 11 164 7 212 -8z
m-1306 -880 c81 -27 156 -76 202 -132 42 -51 87 -143 96 -197 3 -20 6 -360 6
-756 l0 -720 -24 -65 c-29 -79 -67 -136 -123 -185 -140 -120 -326 -142 -492
-58 -63 32 -155 124 -184 183 -50 105 -51 113 -48 880 2 393 6 725 9 738 13
48 59 137 92 178 52 63 155 128 230 144 71 15 173 11 236 -10z m-1307 -875
c133 -45 231 -144 278 -278 19 -57 21 -85 22 -332 2 -366 -14 -435 -129 -550
-201 -200 -539 -159 -681 82 -61 105 -64 128 -61 452 2 163 6 303 8 311 25 76
36 101 62 140 108 161 321 236 501 175z"/>
</g>
</svg>
